<?xml version="1.0" standalone="no"?>
<!DOCTYPE svg PUBLIC "-//W3C//DTD SVG 20010904//EN"
 "http://www.w3.org/TR/2001/REC-SVG-20010904/DTD/svg10.dtd">
<svg version="1.0" xmlns="http://www.w3.org/2000/svg"
 width="3508.000000pt" height="3508.000000pt" viewBox="0 0 3508.000000 3508.000000"
 preserveAspectRatio="xMidYMid meet">
<metadata>
Created by potrace 1.16, written by Peter Selinger 2001-2019
</metadata>
<g transform="translate(0.000000,3508.000000) scale(0.100000,-0.100000)"
fill="#000000" stroke="none">
<path d="M0 17540 l0 -17540 17540 0 17540 0 0 17540 0 17540 -17540 0 -17540
0 0 -17540z m19710 14321 c52 -5 169 -18 260 -29 91 -11 235 -25 320 -32 531
-40 1666 -263 2205 -433 94 -30 206 -64 250 -76 181 -50 323 -94 370 -115 28
-13 134 -51 237 -85 270 -89 734 -279 1093 -446 453 -212 1050 -519 1075 -555
7 -9 296 -180 306 -180 20 0 460 -278 554 -350 19 -15 135 -98 256 -184 122
-87 230 -165 240 -174 11 -10 80 -65 154 -122 441 -340 733 -585 950 -795 80
-78 200 -191 268 -253 67 -62 174 -168 236 -235 63 -67 174 -183 246 -257 159
-164 362 -399 620 -720 46 -58 103 -127 127 -153 48 -55 315 -409 359 -477 16
-25 73 -108 127 -184 108 -152 257 -373 257 -380 0 -6 317 -535 342 -570 32
-45 158 -267 158 -278 0 -5 20 -47 45 -92 25 -46 45 -85 45 -88 0 -5 -21 -3
-145 12 -44 6 -174 22 -290 35 -115 14 -219 28 -230 30 -11 3 -112 14 -225 25
-113 11 -212 23 -220 25 -8 3 -78 11 -155 20 -77 8 -169 20 -205 25 -36 6
-105 14 -155 19 -49 5 -144 17 -210 26 -66 9 -174 22 -240 30 -66 7 -178 21
-250 30 -71 8 -191 22 -265 31 -74 9 -184 22 -245 30 -60 7 -171 21 -245 29
-74 8 -202 24 -285 35 -82 10 -193 24 -245 30 -52 6 -126 15 -165 21 -38 5
-164 21 -280 34 -115 13 -266 31 -335 40 -69 9 -161 20 -205 24 -44 5 -156 19
-250 30 -284 36 -562 69 -715 86 -80 9 -183 22 -230 30 -47 7 -128 16 -180 20
-52 3 -156 14 -230 25 -74 10 -180 24 -235 30 -55 7 -161 20 -235 30 -74 11
-241 30 -370 45 -129 14 -262 30 -295 36 -66 11 -85 14 -230 29 -55 6 -145 17
-200 25 -55 8 -152 19 -215 25 -63 5 -218 24 -345 41 -224 30 -289 38 -465 58
-248 28 -439 51 -451 56 -8 2 -68 9 -134 15 -66 6 -147 15 -180 20 -33 5 -103
14 -155 19 -197 22 -369 43 -500 62 -151 21 -431 55 -530 64 -36 3 -108 12
-160 20 -224 32 -262 37 -390 50 -74 8 -187 21 -250 30 -135 17 -258 31 -390
45 -52 5 -129 14 -170 20 -114 15 -216 27 -430 50 -191 20 -476 56 -835 105
-99 14 -183 25 -187 25 -5 0 -8 9 -8 20 0 15 -7 20 -25 20 -19 0 -25 -5 -25
-21 0 -15 -5 -19 -17 -15 -27 7 -84 15 -228 32 -71 8 -184 21 -250 30 -66 8
-160 19 -210 24 -49 6 -99 12 -110 15 -11 3 -126 16 -255 30 -129 13 -258 29
-286 35 -42 9 -334 45 -734 90 -41 5 -133 16 -205 24 -71 9 -168 21 -215 26
-47 5 -213 26 -370 46 -157 20 -321 40 -365 44 -116 12 -405 47 -526 64 -57 8
-156 20 -219 26 -63 6 -155 17 -205 25 -108 17 -236 32 -365 45 -52 5 -119 14
-148 19 -29 6 -108 15 -175 21 -67 6 -156 15 -197 20 -160 21 -330 42 -455 56
-71 8 -168 20 -215 28 -47 8 -110 17 -140 20 -280 30 -567 63 -694 81 -56 8
-161 21 -232 29 -71 8 -181 22 -244 30 -63 8 -160 20 -215 26 -109 12 -362 42
-545 65 -63 8 -173 22 -245 30 -337 40 -473 56 -507 63 l-38 7 68 80 c37 44
117 132 178 195 61 63 149 156 195 207 46 50 145 148 219 216 74 69 196 184
270 257 163 159 399 362 720 620 58 46 127 103 153 127 55 48 409 315 477 359
25 16 108 73 184 127 152 108 373 257 380 257 6 0 535 317 570 342 40 28 262
156 278 160 8 1 155 75 328 163 350 177 524 261 710 340 237 100 635 263 720
294 348 127 558 196 840 277 91 25 176 52 190 59 85 44 811 212 1185 275 72
12 229 39 350 60 300 53 403 67 665 90 253 23 363 35 464 51 38 6 200 15 360
19 348 9 1482 3 1616 -9z m-11175 -4889 c36 -84 65 -157 65 -161 0 -4 9 -18
20 -31 11 -13 20 -29 20 -36 0 -16 57 -155 99 -242 17 -34 31 -67 31 -73 0 -7
9 -26 19 -43 11 -17 40 -80 65 -141 24 -60 86 -202 136 -315 51 -113 110 -247
131 -299 22 -52 46 -108 53 -125 29 -67 141 -325 171 -396 18 -41 47 -106 65
-145 17 -38 38 -83 45 -100 63 -144 89 -206 105 -245 10 -25 37 -88 60 -140
147 -330 228 -515 253 -575 14 -33 46 -107 72 -165 26 -58 59 -136 75 -175 30
-75 100 -231 126 -279 8 -16 36 -82 61 -145 25 -64 60 -147 78 -186 18 -38 51
-113 73 -165 48 -114 115 -268 144 -330 12 -25 25 -54 29 -65 21 -52 226 -526
269 -620 5 -11 23 -54 41 -95 17 -41 51 -117 75 -168 24 -51 44 -95 44 -99 0
-9 78 -188 145 -333 35 -75 82 -183 105 -240 23 -58 45 -109 50 -115 4 -5 27
-55 50 -110 125 -298 165 -391 225 -520 58 -123 220 -501 230 -535 4 -14 20
-50 36 -80 37 -73 119 -258 119 -270 0 -5 20 -51 44 -102 43 -90 108 -237 186
-423 50 -119 137 -320 160 -370 10 -22 37 -79 59 -127 23 -48 41 -92 41 -98 0
-11 53 -139 77 -185 9 -16 28 -59 43 -95 68 -158 142 -326 165 -372 14 -27 25
-55 25 -62 0 -7 15 -43 34 -82 37 -75 186 -419 186 -430 0 -3 19 -45 41 -93
23 -47 49 -106 59 -131 10 -25 32 -74 48 -110 17 -36 40 -89 52 -119 21 -55
27 -68 95 -216 20 -44 47 -108 61 -143 13 -35 30 -75 38 -90 8 -15 29 -61 46
-102 18 -41 41 -93 52 -115 11 -21 33 -73 50 -115 16 -41 54 -128 84 -192 49
-105 112 -250 164 -378 20 -50 151 -352 180 -415 102 -227 230 -521 230 -529
0 -4 54 -128 120 -277 66 -148 120 -274 120 -279 0 -8 46 -112 105 -235 18
-38 43 -95 55 -125 13 -30 31 -73 40 -95 26 -57 157 -360 182 -420 27 -63 62
-142 98 -220 15 -33 52 -118 83 -190 63 -149 303 -703 366 -845 24 -52 51
-115 61 -140 15 -38 96 -222 161 -366 10 -22 27 -63 38 -90 11 -27 49 -116 86
-199 37 -82 93 -211 125 -285 32 -74 79 -182 105 -240 26 -58 49 -113 52 -124
4 -10 19 -45 35 -78 15 -32 28 -61 28 -64 0 -3 18 -44 40 -90 22 -47 40 -88
40 -93 0 -4 16 -44 36 -87 19 -43 41 -92 49 -109 7 -16 22 -50 33 -75 11 -25
48 -110 82 -190 34 -80 66 -150 71 -156 5 -6 17 -35 28 -65 10 -30 30 -79 45
-109 15 -30 45 -98 67 -150 22 -52 58 -135 80 -185 22 -49 50 -112 61 -140 12
-27 31 -72 43 -100 13 -27 36 -81 53 -120 17 -38 58 -131 90 -205 33 -74 79
-180 102 -235 23 -55 57 -132 76 -172 19 -39 34 -74 34 -77 0 -6 102 -240 141
-323 16 -35 29 -65 29 -68 0 -6 3 -12 110 -255 40 -91 78 -178 85 -195 7 -16
26 -61 43 -100 17 -38 47 -108 67 -155 65 -150 106 -243 142 -325 57 -127 70
-157 134 -308 34 -78 71 -164 84 -192 30 -64 82 -184 135 -310 23 -55 73 -169
112 -254 38 -85 74 -166 79 -180 27 -69 42 -91 63 -91 22 0 54 47 256 374 52
84 103 164 112 177 28 38 94 143 100 159 3 9 39 66 79 127 89 133 106 160 209
328 43 72 108 175 143 230 36 55 84 132 107 170 24 39 52 80 64 92 11 11 32
43 46 70 14 26 50 86 80 133 80 124 79 123 89 145 5 11 37 63 72 115 35 53 87
133 114 179 28 45 78 122 112 171 35 49 63 93 63 98 0 5 16 31 35 58 19 27 35
52 35 57 0 9 81 137 227 359 57 87 103 161 103 165 0 5 11 21 25 37 14 16 41
57 60 90 50 87 200 324 275 436 34 52 96 150 136 217 39 67 77 128 83 135 18
21 113 170 119 187 9 23 73 124 86 136 6 6 31 44 55 85 24 41 51 83 59 93 16
18 71 105 178 282 36 61 69 112 73 115 9 6 124 182 180 275 23 39 64 106 91
150 52 87 195 312 275 436 28 43 84 132 125 198 41 67 99 158 129 204 29 45
65 102 79 127 14 25 44 73 66 107 23 34 52 80 66 104 14 23 30 47 36 53 6 6
29 43 53 81 23 39 67 108 97 155 30 47 57 92 61 100 3 8 26 43 50 77 23 34 43
64 43 67 0 9 180 290 190 296 4 3 45 66 90 140 45 74 103 166 128 205 25 38
70 110 100 160 30 49 58 92 62 95 10 7 99 146 107 167 4 10 22 39 40 64 18 26
33 49 33 52 0 6 50 85 177 279 35 53 63 99 63 102 0 10 113 190 125 201 13 11
95 143 95 153 0 3 10 16 23 29 12 14 42 58 67 99 112 185 214 349 220 354 4 3
60 91 126 195 65 105 122 195 127 200 4 6 35 55 68 110 33 55 86 141 119 190
33 50 69 106 80 125 11 19 31 50 43 67 12 18 38 58 57 89 19 31 55 86 78 123
24 36 51 79 59 95 8 16 47 79 87 140 40 61 101 158 135 215 34 57 68 110 75
116 7 7 32 46 56 86 59 100 133 219 270 430 63 98 142 222 175 274 33 53 102
160 153 237 50 78 92 144 92 148 0 4 12 25 28 46 15 21 45 68 66 104 22 36 43
67 46 70 4 3 15 20 24 38 16 32 102 167 118 187 13 15 82 125 171 270 44 72
83 132 87 135 4 3 15 20 24 38 9 18 38 65 64 103 42 64 169 262 240 378 15 23
54 86 87 138 33 52 74 116 90 144 17 27 42 66 56 86 14 21 48 74 76 118 28 44
104 165 169 268 66 103 130 207 144 231 14 23 33 51 43 60 9 10 17 24 17 32 0
8 4 14 8 14 5 0 14 12 20 26 7 14 36 62 65 107 30 45 83 128 118 185 35 56 96
153 136 215 39 62 99 157 133 212 35 55 113 179 175 275 61 96 154 243 206
325 51 83 96 152 99 155 4 3 29 43 57 90 27 47 88 144 135 215 47 72 93 146
103 165 10 19 39 67 65 105 26 39 79 120 118 180 38 61 121 191 184 290 64 99
144 227 180 285 36 58 99 157 140 220 41 63 96 151 123 195 27 44 82 132 123
195 104 161 115 178 151 238 18 30 36 59 42 65 6 7 42 64 80 127 39 63 90 144
113 180 52 80 78 120 91 142 18 31 284 451 335 528 76 117 122 201 116 216 -4
10 4 14 27 14 32 0 33 -3 134 -203 128 -253 208 -422 277 -585 102 -241 264
-637 295 -722 127 -348 196 -558 277 -840 25 -91 52 -176 59 -190 44 -85 212
-811 275 -1185 12 -71 39 -229 60 -350 54 -306 66 -396 90 -665 12 -129 28
-284 36 -345 22 -167 32 -364 44 -885 15 -620 0 -1073 -48 -1470 -11 -91 -25
-235 -32 -320 -40 -531 -263 -1666 -433 -2205 -30 -94 -64 -206 -76 -250 -50
-181 -94 -323 -115 -370 -13 -27 -51 -134 -85 -237 -89 -270 -279 -734 -446
-1093 -212 -453 -519 -1050 -555 -1075 -9 -7 -180 -296 -180 -306 0 -20 -278
-460 -350 -554 -15 -19 -98 -135 -184 -256 -87 -122 -165 -230 -174 -240 -10
-11 -65 -80 -122 -154 -341 -442 -585 -734 -795 -950 -78 -80 -209 -219 -292
-310 -83 -91 -200 -208 -259 -260 -60 -52 -156 -140 -214 -195 -200 -190 -572
-512 -756 -653 -208 -159 -324 -247 -459 -346 -82 -60 -152 -112 -155 -116 -8
-11 -193 -139 -410 -285 -183 -122 -630 -395 -677 -412 -25 -9 -297 -164 -303
-173 -8 -11 -559 -288 -695 -350 -742 -335 -1006 -439 -1560 -615 -82 -26
-163 -53 -180 -61 -40 -18 -294 -94 -315 -94 -9 0 -95 -23 -191 -51 -261 -76
-616 -158 -949 -219 -63 -12 -169 -32 -235 -45 -159 -31 -570 -91 -720 -104
-66 -6 -221 -22 -345 -36 -395 -43 -978 -69 -1390 -62 -402 7 -998 39 -1175
62 -60 8 -200 23 -310 34 -223 22 -398 47 -639 91 -88 16 -237 43 -331 60
-246 44 -497 97 -675 140 -140 34 -223 57 -595 161 -60 17 -148 46 -195 64
-47 18 -141 49 -210 70 -349 103 -641 216 -1245 478 -390 170 -737 342 -1129
563 -82 46 -152 84 -156 84 -8 0 -197 113 -365 217 -174 109 -551 358 -670
443 -66 47 -172 123 -235 169 -235 168 -453 340 -686 540 -60 51 -183 157
-274 235 -90 77 -221 195 -290 261 -69 66 -184 175 -256 242 -72 67 -175 172
-230 235 -54 62 -144 160 -199 218 -191 200 -512 572 -653 756 -159 208 -247
324 -346 459 -60 83 -112 152 -116 155 -11 8 -139 193 -285 410 -122 183 -395
630 -412 677 -9 25 -164 297 -173 303 -11 8 -288 559 -350 695 -335 742 -439
1006 -615 1560 -26 83 -53 164 -61 180 -18 40 -94 294 -94 315 0 9 -23 95 -51
191 -76 261 -158 616 -219 949 -12 63 -32 169 -45 235 -31 159 -91 570 -104
720 -6 66 -22 221 -36 345 -43 398 -50 568 -50 1210 0 647 14 1031 46 1310 11
91 28 253 39 360 21 217 46 393 90 634 16 88 43 238 60 331 44 246 97 497 140
675 34 140 57 223 161 595 17 61 46 148 64 195 18 47 49 141 70 210 103 349
216 641 478 1245 170 390 342 737 563 1129 46 82 84 152 84 156 0 8 113 197
217 365 109 174 358 551 443 670 47 66 123 172 169 235 229 320 636 819 653
802 5 -5 37 -77 73 -160z"/>
</g>
</svg>
